<mxfile host="app.diagrams.net" modified="2023-05-17T08:21:12.522Z" agent="Mozilla/5.0 (Macintosh; Intel Mac OS X 10_15_7) AppleWebKit/605.1.15 (KHTML, like Gecko) Version/15.6.1 Safari/605.1.15" version="21.3.2" etag="H-28NS5KzuzS2beSqL39" type="github">
  <diagram name="Page-1" id="jzwQLoEJnDCEYLlXCnz8">
    <mxGraphModel>
      <root>
        <mxCell id="0" />
        <mxCell id="1" parent="0" />
      </root>
    </mxGraphModel>
  </diagram>
</mxfile>
